<svg xmlns="http://www.w3.org/2000/svg" viewBox="0 0 512 512" id="graph-setting"><path fill="#464668" d="M467.7 273.9h-145c-2.7 0-4.9 2.1-5 4.8-2 42.4-36.9 75.6-79.4 75.6-43.8 0-79.5-35.7-79.5-79.6 0-42.5 33.2-77.4 75.6-79.5 2.7-.1 4.8-2.3 4.8-5v-145c0-2.8-2.2-5-5-5h-24.5c-13.3 0-24.1 10.8-24.1 24.1v31.4c-12.6 3.8-24.8 8.8-36.3 15.1l-22.1-22.2c-2.3-2.3-5-4.1-7.9-5.3-2.9-1.2-6-1.8-9.2-1.8-6.5 0-12.5 2.5-17.1 7.1l-40.7 40.5c-9.4 9.4-9.4 24.7 0 34.1l.2.2 22.1 22.1c-6.3 11.5-11.4 23.7-15.1 36.3H28.1C14.8 221.8 4 232.6 4 245.9v57.4c0 13.3 10.8 24.1 24.1 24.1h31.4c3.8 12.7 8.8 24.9 15.1 36.4l-22.2 22c-4.6 4.6-7.1 10.7-7.1 17.1 0 6.4 2.5 12.4 6.9 16.9l.2.2 40.5 40.5c9.4 9.4 24.7 9.4 34.1 0l.2-.2 22.1-22.1c11.5 6.4 23.7 11.5 36.3 15.3v31.4c0 13.3 10.8 24.1 24.1 24.1h57.4c13.3 0 24.1-10.8 24.1-24v-31.4c12.6-3.8 24.8-8.8 36.3-15.1l22.1 22.2c9.4 9.4 24.7 9.4 34.1 0l40.5-40.5c9.4-9.4 9.4-24.7 0-34.1l-.1-.1-22.2-22.2c6.4-11.5 11.5-23.7 15.3-36.3h31.4c13.3 0 24.1-10.8 24.1-24.1v-24.5c0-2.8-2.2-5-5-5zm-4.8 29.4c0 7.8-6.3 14.1-14.1 14.1h-35.2c-2.2 0-4.2 1.5-4.8 3.7-4 14.3-9.8 28.1-17.3 41-1.1 1.9-.8 4.4.8 6l24.9 24.9.2.2c5.4 5.5 5.4 14.4-.1 19.9l-40.5 40.5c-5.5 5.5-14.5 5.5-20 0L332 428.7c-1.6-1.6-4-1.9-6-.8-12.9 7.4-26.7 13.1-41 17-2.2.6-3.7 2.5-3.7 4.8v35.2c0 7.8-6.3 14.1-14.1 14.1h-57.4c-7.8 0-14.1-6.3-14.1-14.1v-35.2c0-2.2-1.5-4.2-3.7-4.8-14.3-4-28.1-9.8-41-17.3-.8-.5-1.6-.7-2.5-.7-1.3 0-2.6.5-3.5 1.6l-25 25-.2.2c-5.5 5.3-14.3 5.3-19.8-.2l-40.4-40.4-.2-.2c-2.6-2.7-4.1-6.2-4.1-10s1.4-7.3 4.1-10l24.9-24.7c1.6-1.6 1.9-4 .8-6-7.4-12.9-13.1-26.7-17-41.1-.6-2.2-2.5-3.7-4.8-3.7H28.1c-7.8 0-14.1-6.3-14.1-14.1v-57.4c0-7.8 6.3-14.1 14.1-14.1h35.1c2.2 0 4.2-1.5 4.8-3.7 3.9-14.4 9.7-28.1 17.1-41 1.1-1.9.8-4.4-.8-6l-24.9-25-.2-.2c-5.3-5.5-5.3-14.4.2-19.8l40.7-40.5c1.4-1.3 2.9-2.3 4.6-3s3.5-1.1 5.4-1.1c3.8 0 7.3 1.4 10 4.1l24.8 24.9c1.6 1.6 4 1.9 6 .8 12.9-7.4 26.7-13.1 41-17 2.2-.6 3.7-2.5 3.7-4.8V64.3c0-7.8 6.3-14.1 14.1-14.1h19.5v135.3c-45.4 4.6-80.3 42.9-80.3 89.1 0 49.4 40.1 89.6 89.5 89.6 46.3 0 84.5-34.9 89.1-80.4h135.4v19.5z"></path><path fill="#464668" d="M453.4 150.8h-48.1c-2.8 0-5 2.2-5 5V252c0 2.8 2.2 5 5 5h48.1c2.7 0 5-2.2 5-5v-96.2c0-2.8-2.2-5-5-5zm-5 96.2h-38.1v-86.2h38.1V247zM381.2 70.7h-48.1c-2.8 0-5 2.2-5 5V252c0 2.8 2.2 5 5 5h48.1c2.8 0 5-2.2 5-5V75.7c0-2.8-2.2-5-5-5zm-5 176.3h-38.1V80.7h38.1V247zm-67.1-72.1H261c-2.8 0-5 2.2-5 5V252c0 2.8 2.2 5 5 5h48.1c2.8 0 5-2.2 5-5v-72.1c0-2.8-2.2-5-5-5zm-5 72.1H266v-62.1h38.1V247zM459 131c-22.6 0-41-18.4-41-41s18.4-41 41-41 41 18.4 41 41-18.4 41-41 41zm0-72c-17.1 0-31 13.9-31 31s13.9 31 31 31 31-13.9 31-31-13.9-31-31-31z"></path><path fill="#464668" d="M360 77c-2.8 0-5-2.2-5-5V49c0-2.8 2.2-5 5-5s5 2.2 5 5v23c0 2.8-2.2 5-5 5zm99-25.2c-2.8 0-5-2.2-5-5V31c0-2.8 2.2-5 5-5s5 2.2 5 5v15.8c0 2.8-2.2 5-5 5zM360 31c-2.8 0-5-2.2-5-5V9c0-2.8 2.2-5 5-5h6c2.8 0 5 2.2 5 5s-2.2 5-5 5h-1v12c0 2.8-2.2 5-5 5zm98-17h-23c-2.8 0-5-2.2-5-5s2.2-5 5-5h23c2.8 0 5 2.2 5 5s-2.2 5-5 5zm-46 0h-23c-2.8 0-5-2.2-5-5s2.2-5 5-5h23c2.8 0 5 2.2 5 5s-2.2 5-5 5z"></path><path fill="#00d85c" d="M459 104c-.4 0-.7 0-1.1-.1-1.5-.3-2.7-1.3-3.4-2.6l-9-18c-1.2-2.5-.2-5.5 2.2-6.7 2.5-1.2 5.5-.2 6.7 2.2l6.2 12.5 40.2-32.1c2.2-1.7 5.3-1.4 7 .8s1.4 5.3-.8 7l-45 36c-.8.6-1.9 1-3 1z"></path><path fill="#5c77ff" d="M266 184.9h38.1V247H266zM410.3 160.8h38.1V247h-38.1zM338.1 80.7h38.1V247h-38.1z"></path><path fill="#485eff" d="M391.1 283.8c-4.8 80.2-71.3 143.8-152.7 143.8-84.5 0-153-68.5-153-153 0-81.4 63.6-148 143.9-152.7v63.6c-45.4 4.6-80.3 42.9-80.3 89.1 0 49.4 40.1 89.6 89.5 89.6 46.3 0 84.5-34.9 89.1-80.4h63.5z" opacity=".3"></path></svg>